<svg width="21" height="24" viewBox="0 0 21 24" fill="none" xmlns="http://www.w3.org/2000/svg">
<path d="M1.75002 20.75C1.75002 22.125 3.06252 23.25 4.66669 23.25H16.3334C17.9375 23.25 19.25 22.125 19.25 20.75V8.25C19.25 6.875 17.9375 5.75 16.3334 5.75H4.66669C3.06252 5.75 1.75002 6.875 1.75002 8.25V20.75ZM19.25 2H15.6042L14.5688 1.1125C14.3063 0.8875 13.9271 0.75 13.5479 0.75H7.4521C7.07294 0.75 6.69377 0.8875 6.43127 1.1125L5.39585 2H1.75002C0.947937 2 0.291687 2.5625 0.291687 3.25C0.291687 3.9375 0.947937 4.5 1.75002 4.5H19.25C20.0521 4.5 20.7084 3.9375 20.7084 3.25C20.7084 2.5625 20.0521 2 19.25 2Z" fill="white"/>
</svg>
